<svg id="visual" viewBox="0 0 960 300" width="960" height="300" xmlns="http://www.w3.org/2000/svg" xmlns:xlink="http://www.w3.org/1999/xlink" version="1.1"><rect x="0" y="0" width="960" height="300" fill="#1d1f20"></rect><path d="M0 195L22.8 199.7C45.7 204.3 91.3 213.7 137 215.2C182.7 216.7 228.3 210.3 274 206C319.7 201.7 365.3 199.3 411.2 194.7C457 190 503 183 548.8 180.5C594.7 178 640.3 180 686 179.8C731.7 179.7 777.3 177.3 823 182.7C868.7 188 914.3 201 937.2 207.5L960 214L960 301L937.2 301C914.3 301 868.7 301 823 301C777.3 301 731.7 301 686 301C640.3 301 594.7 301 548.8 301C503 301 457 301 411.2 301C365.3 301 319.7 301 274 301C228.3 301 182.7 301 137 301C91.3 301 45.7 301 22.8 301L0 301Z" fill="#fa7268"></path><path d="M0 200L22.8 206.2C45.7 212.3 91.3 224.7 137 229.8C182.7 235 228.3 233 274 231.7C319.7 230.3 365.3 229.7 411.2 225.5C457 221.3 503 213.7 548.8 208.3C594.7 203 640.3 200 686 199.2C731.7 198.3 777.3 199.7 823 199.8C868.7 200 914.3 199 937.2 198.5L960 198L960 301L937.2 301C914.3 301 868.7 301 823 301C777.3 301 731.7 301 686 301C640.3 301 594.7 301 548.8 301C503 301 457 301 411.2 301C365.3 301 319.7 301 274 301C228.3 301 182.7 301 137 301C91.3 301 45.7 301 22.8 301L0 301Z" fill="#e7645d"></path><path d="M0 254L22.8 253.7C45.7 253.3 91.3 252.7 137 246.7C182.7 240.7 228.3 229.3 274 229.7C319.7 230 365.3 242 411.2 246.5C457 251 503 248 548.8 244C594.7 240 640.3 235 686 232.7C731.7 230.3 777.3 230.7 823 230.8C868.7 231 914.3 231 937.2 231L960 231L960 301L937.2 301C914.3 301 868.7 301 823 301C777.3 301 731.7 301 686 301C640.3 301 594.7 301 548.8 301C503 301 457 301 411.2 301C365.3 301 319.7 301 274 301C228.3 301 182.7 301 137 301C91.3 301 45.7 301 22.8 301L0 301Z" fill="#d55752"></path><path d="M0 263L22.8 262.3C45.7 261.7 91.3 260.3 137 259.8C182.7 259.3 228.3 259.7 274 260.3C319.7 261 365.3 262 411.2 261.7C457 261.3 503 259.7 548.8 260.8C594.7 262 640.3 266 686 263.2C731.7 260.3 777.3 250.7 823 248.7C868.7 246.7 914.3 252.3 937.2 255.2L960 258L960 301L937.2 301C914.3 301 868.7 301 823 301C777.3 301 731.7 301 686 301C640.3 301 594.7 301 548.8 301C503 301 457 301 411.2 301C365.3 301 319.7 301 274 301C228.3 301 182.7 301 137 301C91.3 301 45.7 301 22.8 301L0 301Z" fill="#c24a47"></path><path d="M0 272L22.8 270.5C45.7 269 91.3 266 137 267.8C182.7 269.7 228.3 276.3 274 278.2C319.7 280 365.3 277 411.2 275.2C457 273.3 503 272.7 548.8 271.5C594.7 270.3 640.3 268.7 686 268.3C731.7 268 777.3 269 823 268.7C868.7 268.3 914.3 266.7 937.2 265.8L960 265L960 301L937.2 301C914.3 301 868.7 301 823 301C777.3 301 731.7 301 686 301C640.3 301 594.7 301 548.8 301C503 301 457 301 411.2 301C365.3 301 319.7 301 274 301C228.3 301 182.7 301 137 301C91.3 301 45.7 301 22.8 301L0 301Z" fill="#b03d3d"></path></svg>